# xmcd CD database file
#
# Track frame offsets:
#	150
#	17870
#	41381
#	60612
#	85645
#	107022
#	126997
#	144696
#	170199
#	188627
#
# Disc length: 2703 seconds
#
# Revision: 0
# Processed by: cddbd v1.5.2PL0 Copyright (c) Steve Scherf et al.
# Submitted via: CDex 1.70beta3
#
DISCID=860a8d0a
DTITLE=Dani and Debora Gurgel Quarteto - UM
DYEAR=2013
DGENRE=Jazz
TTITLE0=36-47
TTITLE1=Matraca de Cordel
TTITLE2=Bala Com Bala
TTITLE3=Descompassamba
TTITLE4=Not To Be Heard
TTITLE5=Rock With You
TTITLE6=Verso em No
TTITLE7=Quiet Little Lady
TTITLE8=Forro Brasil
TTITLE9=Te Vira
EXTD=YEAR: 2013
EXTT0=
EXTT1=
EXTT2=
EXTT3=
EXTT4=
EXTT5=
EXTT6=
EXTT7=
EXTT8=
EXTT9=
PLAYORDER=
